<svg xmlns="http://www.w3.org/2000/svg" width="800" height="800" viewBox="0 0 800 800" role="img" aria-labelledby="title desc">
  <title id="title">Architecture</title>
  <desc id="desc">Open-safe abstract artwork for the Architecture category.</desc>
  <defs>
    <linearGradient id="bg" x1="0" y1="0" x2="1" y2="1">
      <stop offset="0%" stop-color="#E0E7FF"/>
      <stop offset="55%" stop-color="#6366F1" stop-opacity="0.88"/>
      <stop offset="100%" stop-color="#111827"/>
    </linearGradient>
    <linearGradient id="glow" x1="0" y1="1" x2="1" y2="0">
      <stop offset="0%" stop-color="#ffffff" stop-opacity="0.12"/>
      <stop offset="100%" stop-color="#ffffff" stop-opacity="0.68"/>
    </linearGradient>
  </defs>
  <rect width="800" height="800" rx="56" fill="url(#bg)"/>
  <circle cx="658" cy="142" r="122" fill="#ffffff" opacity="0.15"/>
  <circle cx="192" cy="222" r="170" fill="#ffffff" opacity="0.08"/>
  <path d="M0 548C148 470 276 428 384 422C536 414 648 464 800 584V800H0Z" fill="#0f172a" opacity="0.72"/>
  <path d="M0 620C160 546 312 512 456 520C592 528 696 582 800 676V800H0Z" fill="#020617" opacity="0.75"/>
  <g opacity="0.92">
    <rect x="88" y="112" width="280" height="18" rx="9" fill="url(#glow)"/>
    <rect x="88" y="152" width="196" height="18" rx="9" fill="url(#glow)" opacity="0.8"/>
    <rect x="88" y="590" width="168" height="16" rx="8" fill="#ffffff" opacity="0.78"/>
  </g>
  <text x="88" y="665" fill="#ffffff" font-family="Arial, Helvetica, sans-serif" font-size="64" font-weight="700">Architecture</text>
  <text x="88" y="718" fill="#e5e7eb" font-family="Arial, Helvetica, sans-serif" font-size="28">Open-safe local category artwork</text>
</svg>
